<svg width="50" height="41" viewBox="0 0 50 41" fill="none" xmlns="http://www.w3.org/2000/svg">
<path d="M37.1688 28.2575C36.7823 25.615 35.4671 23.1994 33.4619 21.4489C31.4567 19.6984 28.8942 18.7291 26.2394 18.7167H23.7652C21.1104 18.7291 18.548 19.6984 16.5428 21.4489C14.5375 23.1994 13.2224 25.615 12.8358 28.2575L11.6499 36.6004C11.612 36.8701 11.637 37.145 11.723 37.4032C11.809 37.6615 11.9535 37.8961 12.1452 38.0884C12.6103 38.5563 15.4635 40.9427 25.0047 40.9427C34.5458 40.9427 37.3921 38.5657 37.8641 38.0884C38.0558 37.8961 38.2003 37.6615 38.2863 37.4032C38.3723 37.145 38.3973 36.8701 38.3594 36.6004L37.1688 28.2575ZM14.6752 20.0035C12.4278 22.0879 10.9655 24.8898 10.536 27.9346L9.6756 33.924C2.76916 33.8772 0.676295 31.3504 0.327485 30.8357C0.192654 30.6487 0.0964354 30.4365 0.0445133 30.2114C-0.00740885 29.9864 -0.0139818 29.7532 0.0251826 29.5256L0.536771 26.6245C0.803314 25.1083 1.42931 23.6792 2.36168 22.4582C3.29406 21.2373 4.50531 20.2605 5.89275 19.6108C7.28018 18.961 8.80288 18.6575 10.3317 18.7258C11.8606 18.7942 13.3505 19.2325 14.6752 20.0035ZM49.9748 29.5256C50.014 29.7532 50.0074 29.9864 49.9555 30.2114C49.9036 30.4365 49.8074 30.6487 49.6725 30.8357C49.3237 31.3504 47.2308 33.8772 40.3244 33.924L39.464 27.9346C39.0345 24.8898 37.5722 22.0879 35.3248 20.0035C36.6495 19.2325 38.1394 18.7942 39.6683 18.7258C41.1971 18.6575 42.7198 18.961 44.1073 19.6108C45.4947 20.2605 46.7059 21.2373 47.6383 22.4582C48.5707 23.6792 49.1967 25.1083 49.4632 26.6245L49.9748 29.5256ZM15.0705 14.8564C14.4852 15.6916 13.7081 16.3723 12.8053 16.8407C11.9025 17.3091 10.9007 17.5514 9.88489 17.5469C8.87161 17.5469 7.87284 17.3046 6.97088 16.8401C6.06891 16.3756 5.28958 15.702 4.69711 14.875C4.10464 14.048 3.71598 13.0911 3.56317 12.0833C3.41036 11.0755 3.49777 10.0456 3.81819 9.07849C4.13862 8.11135 4.68289 7.23466 5.40615 6.52067C6.12941 5.80668 7.01096 5.27582 7.97815 4.97186C8.94534 4.66789 9.97047 4.59951 10.9691 4.77235C11.9677 4.94519 12.9112 5.3543 13.7218 5.96597C13.4886 6.88332 13.3714 7.8266 13.373 8.77347C13.3748 10.9192 13.9619 13.0233 15.0705 14.8564ZM46.51 11.1131C46.5106 11.9581 46.3456 12.795 46.0244 13.5759C45.7033 14.3568 45.2323 15.0663 44.6383 15.6638C44.0444 16.2614 43.3392 16.7353 42.563 17.0584C41.7869 17.3815 40.9551 17.5475 40.1151 17.5469C39.0993 17.5514 38.0975 17.3091 37.1947 16.8407C36.2919 16.3723 35.5148 15.6916 34.9295 14.8564C36.0381 13.0233 36.6252 10.9192 36.627 8.77347C36.6286 7.8266 36.5114 6.88332 36.2782 5.96597C37.2283 5.24907 38.358 4.8125 39.5408 4.7052C40.7236 4.5979 41.9128 4.82409 42.975 5.35844C44.0372 5.89279 44.9305 6.71418 45.5549 7.73058C46.1793 8.74697 46.51 9.91821 46.51 11.1131Z" fill="black"/>
<path d="M25.0002 17.5469C29.8163 17.5469 33.7205 13.6189 33.7205 8.77343C33.7205 3.928 29.8163 0 25.0002 0C20.1841 0 16.28 3.928 16.28 8.77343C16.28 13.6189 20.1841 17.5469 25.0002 17.5469Z" fill="black"/>
</svg>
