<svg width="43" height="39" viewBox="0 0 43 39" fill="none" xmlns="http://www.w3.org/2000/svg">
<path d="M0 0H34.4C37.4103 0 38.9154 0 40.0652 0.579647C41.0766 1.08952 41.8988 1.9031 42.4142 2.90378C43 4.0414 43 5.53063 43 8.50909V10.6364H8.6C5.58972 10.6364 4.08458 10.6364 2.9348 10.0567C1.92343 9.54684 1.10116 8.73327 0.58584 7.73259C0 6.59496 0 5.10573 0 2.12727V0Z" fill="#141414"/>
<path d="M0 24.8182H34.4C37.4103 24.8182 38.9154 24.8182 40.0652 24.2385C41.0766 23.7287 41.8988 22.9151 42.4142 21.9144C43 20.7768 43 19.2876 43 16.3091V14.1818H8.6C5.58972 14.1818 4.08458 14.1818 2.9348 14.7615C1.92343 15.2713 1.10116 16.0849 0.58584 17.0856C0 18.2232 0 19.7124 0 22.6909V24.8182Z" fill="#141414"/>
<path d="M16.7222 28.3636H34.4C37.4103 28.3636 38.9154 28.3636 40.0652 28.9433C41.0766 29.4532 41.8988 30.2667 42.4142 31.2674C43 32.405 43 33.8943 43 36.8727V39H25.3222C22.3119 39 20.8068 39 19.657 38.4203C18.6457 37.9105 17.8234 37.0969 17.3081 36.0962C16.7222 34.9586 16.7222 33.4694 16.7222 30.4909V28.3636Z" fill="#141414"/>
</svg>
